<svg xmlns="http://www.w3.org/2000/svg" viewBox="0 0 128 128">
  <defs>
    <linearGradient id="grad1" x1="0%" y1="0%" x2="100%" y2="100%">
      <stop offset="0%" style="stop-color:#3b82f6;stop-opacity:1" />
      <stop offset="100%" style="stop-color:#1e40af;stop-opacity:1" />
    </linearGradient>
  </defs>
  
  <!-- Background Circle -->
  <circle cx="64" cy="64" r="60" fill="url(#grad1)"/>
  
  <!-- Pulse/Chart Line -->
  <path d="M 25 64 L 40 64 L 48 45 L 56 75 L 64 50 L 72 70 L 80 55 L 88 64 L 103 64" 
        stroke="#ffffff" 
        stroke-width="5" 
        fill="none" 
        stroke-linecap="round" 
        stroke-linejoin="round"/>
  
  <!-- Credit Symbol (Dollar Sign) -->
  <g transform="translate(64, 90)">
    <path d="M -2 -8 L -2 -22 M 2 -8 L 2 -22 M -8 -18 C -8 -21 -5 -22 -2 -22 L 2 -22 C 5 -22 8 -21 8 -18 C 8 -15 5 -14 2 -14 L -2 -14 C -5 -14 -8 -13 -8 -10 C -8 -7 -5 -6 -2 -6 L 2 -6 C 5 -6 8 -7 8 -10" 
          stroke="#ffffff" 
          stroke-width="3" 
          fill="none" 
          stroke-linecap="round"/>
  </g>
</svg>
